<svg xmlns="http://www.w3.org/2000/svg" xml:space="preserve" width="320.976" height="320.978" viewBox="0 0 84.925 84.925"><path d="M-128.876-26.348a35 35 0 0 1-2.548 13.112l-32.452-13.112z" style="fill:#6099f6;fill-opacity:1;stroke:#000;stroke-width:0;stroke-linejoin:miter;stroke-dasharray:none;stroke-dashoffset:106.774;stroke-opacity:1" transform="scale(-1 -1.00055) rotate(.495 899.088 13999.921)"/><path d="M-126.804 36.973a35 35 0 0 1-35 35v-35z" style="fill:#1972e2;fill-opacity:1;stroke:#000;stroke-width:0;stroke-linejoin:miter;stroke-dasharray:none;stroke-dashoffset:106.774;stroke-opacity:1" transform="matrix(-.92387 -.3829 .38268 -.9244 -121.043 7.252)"/><path d="M71.97 161.8a35 35 0 0 1-21.325 32.217L36.97 161.799Z" style="fill:#abcafb;fill-opacity:1;stroke:#000;stroke-width:0;stroke-linejoin:miter;stroke-dasharray:none;stroke-dashoffset:106.774;stroke-opacity:1" transform="matrix(.38268 -.9244 .92387 .3829 -121.043 7.252)"/><path d="M6.482 29.28h71.96a5.232 5.232 45 0 1 5.233 5.233v16.201a32.96 32.96 135 0 1-32.96 32.96H34.21A32.96 32.96 45 0 1 1.25 50.715v-16.2a5.232 5.232 135 0 1 5.232-5.233z" style="fill:#f6e738;fill-opacity:1;stroke:#f6e738;stroke-width:2.50068;stroke-linejoin:bevel;stroke-dasharray:none;stroke-opacity:1"/><path fill="none" d="M14.169 37.776H72.27a2.277 2.277 45 0 1 2.277 2.277v9A26.886 26.886 135 0 1 47.66 75.938h-9.89a26.721 26.721 45 0 1-26.722-26.721v-8.321a3.12 3.12 135 0 1 3.12-3.12z" style="fill:#000;fill-opacity:0;stroke:#ceb555;stroke-width:3.901;stroke-linecap:round;stroke-linejoin:round;stroke-dasharray:11.70300007,11.70300007;stroke-dashoffset:84.6517005;stroke-opacity:1;paint-order:markers fill stroke"/></svg>